<svg xmlns="http://www.w3.org/2000/svg" viewBox="0 0 120 120" fill="currentColor" fill-rule="evenodd">
  <path d="
    M60 0 C26.9 0 0 26.9 0 60s26.9 60 60 60 60-26.9 60-60S93.1 0 60 0z
    M59.8 79.3c-9.4-1.3-16.7-9.5-16.7-19.3s7.2-17.9 16.7-19.2c-7.8 3-13.3 10.5-13.3 19.3s5.5 16.3 13.3 19.2zm28.9-16.2c-1.2 10.1-8.1 18.5-17.4 21.8 11-1.8 19.6-10.8 20.9-21.9-.6.3-1.2.5-1.8.5-.7 0-1.2-.1-1.7-.4zm-3.8-20.8c-.1-.1-.1-.1-.2-.2-3.6-3.5-8.3-6-13.5-6.9 3.7 1.3 6.9 3.4 9.7 6 .1.1.1.2.2.3l16.2 16.2c1.1 1.1 1.3 2.8.6 4.1.9.8 2.3.8 3.2 0 .9-.9.9-2.3 0-3.2z
    M55.2 79.3c-2.4-.3-4.7-1.1-6.7-2.3-3.2-1.8-5.8-4.4-7.5-7.5-1.5-2.7-2.4-5.7-2.4-8.9 0-.2 0-.4 0-.5 0-.4 0-.7 0-1.1.3-5.5 2.9-10.4 6.8-13.7 1-.8 2.1-1.6 3.2-2.2 2-1.1 4.2-1.9 6.6-2.2-7.8 3-13.3 10.5-13.3 19.3v.8c.4 8.3 5.8 15.5 13.3 18.3zm32.4-17.1-1.1-1.1-2.3-2.3v1.2c0 5.5-1.7 10.6-4.6 14.8-.7 1.2-1.5 2.2-2.5 3.2-2.9 3.1-6.5 5.4-10.5 6.9 11.3-1.9 20-11.2 21-22.7zm-56-.9c0-.4 0-.8 0-1.2 0-.5 0-1 0-1.6v-.1c-.8-.8-2.1-.8-3 0l2.8 2.8zm48.7-19c-.1-.1-.1-.1-.2-.2-3.6-3.5-8.3-6-13.5-6.9 3.7 1.3 6.9 3.4 9.7 6 .1.1.2.1.2.2l.7.7 7.8 7.8 7.1 7.1.7.7c.4.4.7.9.8 1.4.3.8.2 1.8-.2 2.6 0 0 0 .1-.1.1.8.8 2.1.8 3 0 0 0 .1-.1.1-.1.2-.2.4-.5.5-.8.3-.8.1-1.8-.5-2.4z
    M91.9 58.4l-5.5-5.5-2.3-2.3-7.5-7.5-.8-.8c-.1-.1-.1-.1-.2-.2-.5-.5-1.1-1-1.6-1.5-3.3-2.6-7.2-4.5-11.5-5.3-.7-.1-1.5-.2-2.3-.3-.3 0-.6 0-.9-.1-.4 0-.9 0-1.4 0-1.4 0-2.8.1-4.1.3-11 1.9-19.6 10.8-20.9 21.9 0 .3-.1.5-.1.8s0 .6-.1.9v.6.6 1.2c0 .6.1 1.2.2 1.9 0 .4.1.8.2 1.2l-5.1-5-.8-.8c-.9-.8-2.3-.8-3.2 0-.9.9-.9 2.3 0 3.2l16.2 16.2.2.2c3.6 3.5 8.3 6 13.5 6.9 1.4.2 2.7.3 4.1.3h1.4c.3 0 .6 0 .9-.1.8-.1 1.5-.2 2.3-.3 4.3-.8 8.2-2.7 11.4-5.3.9-.7 1.7-1.5 2.5-2.4 4.1-4.5 6.7-10.5 6.7-17.1 0-.3 0-.5 0-.8 0-1.2-.2-2.4-.4-3.5l3.8 3.8 1.1 1.1 1 1s.1.1.1.1c.8.8 2.1.8 3 0 0 0 .1-.1.1-.1.1-.1.2-.3.3-.4s.2-.3.2-.4c.3-.7.2-1.4-.2-2-.1-.2-.2-.3-.3-.5zm-26.7 20.9c-.1 0-.1.1-.2.1-.8.3-1.7.6-2.5.7-.7.2-1.5.3-2.3.4s-1.5.1-2.3.1c-2.4 0-4.7-.4-6.8-1.2-1.2-.4-2.3-.9-3.3-1.5-3.2-1.8-5.9-4.5-7.8-7.8-.6-1-1-2-1.4-3-.7-2-1.2-4.1-1.3-6.3 0-.3 0-.5 0-.8 0-.2 0-.4 0-.6 0-.5 0-1 .1-1.5.7-6.8 4.7-12.6 10.4-15.8 1-.6 2.1-1.1 3.2-1.5 2.1-.8 4.4-1.2 6.8-1.2.8 0 1.5 0 2.3.1.9.2 1.6.3 2.4.5.9.2 1.7.4 2.5.7.1 0 .1.1.2.1 7.8 3 13.3 10.5 13.3 19.3s-5.5 16.3-13.3 19.2z
  "/>
</svg>