<svg xmlns="http://www.w3.org/2000/svg" viewBox="0 0 1024 1024" fill="currentColor">
  <g transform="translate(0,1024) scale(0.1,-0.1)">
    <path fill-rule="evenodd" d="M5460 8144 c54 -32 59 -53 80 -336 28 -377 43 -686 36 -735 -9 -69 -43
-121 -141 -223 -51 -52 -100 -110 -110 -129 -14 -27 -25 -130 -56 -490 -21
-251 -42 -475 -46 -499 l-8 -44 -259 2 c-143 0 -261 2 -262 3 -4 4 27 375 56
657 16 163 30 322 30 353 0 73 -16 105 -114 226 -87 108 -111 166 -103 245 3
28 26 139 50 246 25 107 71 305 101 440 52 227 58 247 86 273 l30 27 301 0
c261 0 305 -2 329 -16z m1270 -152 c41 -31 55 -69 42 -117 -6 -23 -70 -181
-141 -352 -80 -190 -131 -324 -131 -345 0 -43 31 -93 71 -113 17 -9 72 -32
123 -50 50 -18 152 -56 225 -85 228 -88 227 -88 382 334 118 322 137 358 196
372 96 25 162 -59 226 -286 30 -106 29 -312 -1 -422 -50 -183 -144 -347 -269
-471 -119 -117 -235 -186 -383 -226 -106 -29 -138 -65 -180 -202 -18 -57 -45
-147 -62 -199 -16 -52 -33 -106 -37 -120 l-8 -25 -426 0 c-234 0 -428 3 -432
6 -3 4 46 168 110 365 139 427 137 406 47 539 -65 96 -111 200 -139 311 -25
103 -23 315 5 416 83 304 268 527 540 650 112 51 191 57 242 20z m-3150 -297
c36 -9 110 -38 166 -65 208 -101 356 -287 415 -520 18 -71 21 -104 17 -215 -4
-112 -9 -143 -37 -225 -39 -116 -84 -197 -156 -285 -81 -100 -81 -101 9 -408
42 -141 76 -261 76 -267 0 -7 -120 -10 -369 -10 l-368 0 -53 178 c-52 178 -82
249 -110 262 -8 4 -59 29 -112 54 -217 104 -368 274 -439 496 -131 406 98 854
504 984 45 15 109 31 142 36 78 12 233 4 315 -15z m115 -2135 c539 -16 1126
-34 1305 -40 292 -9 565 -15 1495 -36 l280 -6 230 36 c500 76 536 80 576 63
26 -11 42 -27 58 -59 41 -85 109 -584 89 -655 -5 -20 -26 -53 -46 -74 -42 -44
22 -25 -623 -184 -344 -84 -347 -85 -475 -85 -128 0 -816 25 -969 35 -44 3
-235 10 -425 15 -802 23 -2228 80 -2497 99 -139 10 -180 25 -227 84 -29 37
-31 43 -35 149 -3 111 12 368 30 508 21 160 40 180 168 180 47 0 527 -14 1066
-30z m3740 -1112 c3 -13 12 -106 20 -208 9 -102 22 -239 30 -305 8 -66 35
-325 59 -575 48 -482 48 -498 7 -578 -11 -21 -32 -49 -48 -64 -15 -14 -172
-118 -348 -230 -561 -358 -580 -368 -694 -368 -55 0 -506 52 -1301 150 -179
22 -584 69 -900 105 -1453 165 -1450 164 -1488 184 -44 23 -103 83 -125 127
-45 88 -44 106 39 1129 19 237 37 472 41 524 l6 93 66 -6 c36 -3 237 -13 446
-21 984 -39 1630 -65 1730 -70 466 -22 1412 -55 1600 -55 l150 0 245 66 c135
37 290 79 345 94 55 15 103 28 107 29 4 0 10 -9 13 -21z M3302 7215 c-116 -32 -187 -105 -218 -225 -35 -138 33 -280 168 -352
62 -33 204 -33 265 0 107 56 163 142 171 258 6 91 -15 156 -70 218 -49 57
-106 91 -176 105 -65 14 -74 13 -140 -4z"/>
  </g>
</svg>